<?xml version="1.0" encoding="UTF-8"?>
<svg id="Capa_3" data-name="Capa 3" xmlns="http://www.w3.org/2000/svg" viewBox="0 0 1200 1200">
  <defs>
    <style>
      .cls-1 {
        fill: #5d97ab;
      }

      .cls-2 {
        fill: #e9a248;
      }
    </style>
  </defs>
  <g>
    <path class="cls-1" d="M571.64,798.24c-4.82,0-9.53-1.67-13.38-4.87-5.71-4.75-8.47-11.97-7.39-19.34,1.17-7.97-.73-19.42-2.59-27.52-45.03-9.94-85.95-34.61-115.97-70.1-32.33-38.21-50.09-86.87-50.01-136.99.08-51.04,15.71-99.58,44.02-136.67,29.74-38.96,71.23-63.82,120.01-71.89,7.46-1.23,14.52,3.81,15.75,11.28,1.24,7.46-3.81,14.52-11.28,15.75-84.26,13.94-140.96,86.91-141.11,181.57-.07,43.64,15.39,86,43.53,119.26,27.82,32.88,66.35,55.09,108.5,62.54,5.06.89,9.2,4.55,10.71,9.46.71,2.32,5.97,19.93,6.16,36.88,13.99-6.42,29.41-17.81,37.36-37.89,1.75-4.42,5.67-7.62,10.35-8.45,88.09-15.56,152.03-91.89,152.03-181.5,0-42.66-11.82-81.59-34.17-112.58-22.45-31.12-54.62-52.82-93.05-62.76-7.33-1.9-11.73-9.37-9.83-16.69,1.89-7.33,9.37-11.72,16.69-9.83,44.69,11.56,82.18,36.89,108.41,73.25,25.74,35.69,39.35,80.16,39.35,128.61s-17.8,98.64-50.11,136.78c-30.33,35.81-71.77,60.58-117.32,70.29-15.32,31.03-43.61,44.73-59.82,50.26-2.25.77-4.56,1.14-6.85,1.15Z"/>
    <path class="cls-1" d="M636.71,696.48c-.72,0-1.45-.06-2.19-.17-34.49-5.54-74.24-14.36-107.58-37.77-53.82-35.56-81.61-103.33-66.12-161.27,8.89-35.65,33.7-65.23,68.1-81.17,33.61-15.58,71.27-15.44,103.34.38,24.09,11.23,43.73,29.89,55.31,52.54,12.41,24.27,14.52,51.51,5.93,76.72-10.54,32.28-34.12,53.3-63.1,56.25-26.88,2.65-55.47-9.03-72.92-29.78-15.78-18.25-18.17-43.55-5.84-61.63,11.46-17.56,34.47-25.36,52.49-17.78,15.92,6.74,23.08,21.52,28.83,33.39l1.08,2.22c3.32,6.8.51,15-6.29,18.32-6.79,3.33-15,.51-18.32-6.29l-1.13-2.31c-4.33-8.93-8.42-17.38-14.83-20.09-5.87-2.47-14.72,1.07-18.93,7.58l-.22.34c-6.01,8.73-2.57,20.89,3.93,28.39l.15.18c11.61,13.86,31.41,21.99,49.27,20.21,17.85-1.82,32.75-15.86,39.81-37.56l.06-.19c7.95-23.25,2.01-43-4.36-55.48-8.84-17.28-23.97-31.57-42.62-40.24l-.3-.15c-24.62-12.19-53.72-12.24-79.82-.15-26.87,12.45-46.21,35.43-53.06,63.04l-.06.25c-12.61,46.97,10.46,102.28,54.87,131.53l.35.24c28.82,20.29,64.87,28.19,96.33,33.25,7.47,1.2,12.55,8.23,11.35,15.7-1.08,6.73-6.9,11.53-13.51,11.53Z"/>
    <path class="cls-1" d="M600.38,326.64c-.06-.34-5.65-21.83-5.78-22.15l-16.96-42.4s18.88-51.09-30.12-110.92c-40.8-49.82-93.7-58.37-110.36-54.37-8.21,24.87-.04,70.83,22,116.37,22.04,45.54,81.02,54.07,100.12,64.35,19.1,10.28,27.78,102.84,27.78,102.84,18.36,4.41,19.93-3.94,19.93-3.94l-6.61-49.77ZM497.85,158.93c16.68,6.96,53.05,79.84,53.05,79.84l-53.05-79.84Z"/>
    <path class="cls-1" d="M588.68,374.8c.07.26.45,1.44,1.99,2.42,1.85,1.19,5.64,2.21,13.2.44.23-2.34,1.98-19.7,5.35-37.74,4.85-25.99,10.57-40.92,16.99-44.38,3.65-1.97,9.15-3.86,15.51-6.06,20.27-7,50.91-17.57,64.26-45.14,17.05-35.23,24.1-72.32,17.6-92.42-11.95-2.69-54.12,2.54-87.52,43.32-20.13,24.58-25.57,47.24-26.6,61.93-1.11,15.91,2.58,26.15,2.62,26.25l.05.13-13.59,33.98c-.14.42-4.48,17.06-4.59,17.61l-5.26,39.64ZM675.72,210.14l-49.86,57.27s36.04-53.52,49.86-57.27Z"/>
  </g>
  <g>
    <path class="cls-1" d="M66.57,936.06c7.09,0,12.18-1.28,15.27-3.84,3.09-2.56,4.63-5.62,4.63-9.16,0-3.28-1.22-5.94-3.65-7.98-2.43-2.03-6.01-3.77-10.74-5.22l-10.44-3.35c-7.09-2.36-13.37-4.99-18.81-7.88-5.45-2.89-9.66-6.63-12.61-11.23-2.96-4.6-4.43-10.44-4.43-17.54,0-10.9,4.14-19.57,12.41-26.01,8.28-6.44,19.77-9.66,34.48-9.66,7.49,0,14.15.72,20,2.17,5.85,1.45,10.44,3.58,13.79,6.4,3.35,2.83,5.02,6.27,5.02,10.34,0,3.02-.69,5.62-2.07,7.78-1.38,2.17-3.12,4.04-5.22,5.62-3.02-2.1-7.03-3.91-12.02-5.42-4.99-1.51-10.51-2.27-16.55-2.27s-11.03,1.02-14.19,3.05c-3.15,2.04-4.73,4.7-4.73,7.98,0,2.63,1.05,4.76,3.15,6.4,2.1,1.64,5.25,3.12,9.46,4.43l10.84,3.35c11.95,3.68,21.15,8.57,27.58,14.68,6.43,6.11,9.65,14.29,9.65,24.53,0,11.03-4.27,20-12.81,26.9-8.54,6.9-20.89,10.34-37.04,10.34-8.02,0-15.17-.86-21.48-2.56-6.3-1.71-11.33-4.2-15.07-7.49-3.74-3.28-5.61-7.09-5.61-11.43,0-3.41,1.01-6.34,3.05-8.77,2.03-2.43,4.3-4.24,6.8-5.42,3.55,2.89,7.98,5.49,13.3,7.78,5.32,2.3,11.33,3.45,18.03,3.45Z"/>
    <path class="cls-1" d="M149.52,923.65l-1.18-19.7,48.86-7.68c-.27-3.68-1.84-7.09-4.73-10.25-2.89-3.15-7.16-4.73-12.81-4.73s-10.84,2.01-14.78,6.01c-3.94,4.01-6.04,9.69-6.3,17.04l.99,13.6c1.18,7.22,4.27,12.38,9.26,15.47,4.99,3.09,10.9,4.63,17.73,4.63,5.52,0,10.7-.79,15.57-2.37,4.86-1.58,8.8-3.22,11.82-4.93,1.97,1.18,3.58,2.83,4.83,4.93,1.25,2.1,1.87,4.34,1.87,6.7,0,3.94-1.55,7.23-4.63,9.85-3.09,2.63-7.36,4.6-12.81,5.91-5.45,1.31-11.66,1.97-18.62,1.97-10.12,0-19.21-1.91-27.29-5.71-8.08-3.81-14.42-9.52-19.01-17.14-4.6-7.62-6.9-17.14-6.9-28.57,0-8.4,1.35-15.69,4.04-21.87,2.69-6.17,6.3-11.26,10.84-15.27,4.53-4.01,9.66-6.99,15.37-8.96,5.71-1.97,11.66-2.96,17.83-2.96,9.06,0,16.98,1.81,23.74,5.42,6.76,3.61,12.05,8.51,15.86,14.68,3.81,6.18,5.71,13.33,5.71,21.48,0,4.07-1.12,7.16-3.35,9.26-2.24,2.1-5.32,3.42-9.26,3.94l-62.66,9.26Z"/>
    <path class="cls-1" d="M271.87,887.99v24.63h-29.16v-28.18c0-3.68.89-6.8,2.66-9.36,1.77-2.56,4.24-4.83,7.39-6.8,4.33-2.63,9.56-4.69,15.66-6.21,6.11-1.51,12.51-2.27,19.21-2.27,13.4,0,20.1,4.47,20.1,13.4,0,2.1-.3,4.07-.89,5.91-.59,1.84-1.28,3.42-2.07,4.73-1.31-.26-2.92-.49-4.83-.69-1.91-.2-3.97-.3-6.21-.3-3.94,0-7.88.46-11.82,1.38-3.94.92-7.29,2.17-10.05,3.74ZM242.71,905.13l29.16.59v51.23c-1.31.39-3.15.75-5.52,1.08-2.37.33-4.93.49-7.68.49-5.52,0-9.56-.99-12.12-2.96-2.56-1.97-3.84-5.52-3.84-10.64v-39.8Z"/>
    <path class="cls-1" d="M332.56,923.65l-1.18-19.7,48.86-7.68c-.27-3.68-1.84-7.09-4.73-10.25-2.89-3.15-7.16-4.73-12.81-4.73s-10.84,2.01-14.78,6.01c-3.94,4.01-6.04,9.69-6.3,17.04l.99,13.6c1.18,7.22,4.27,12.38,9.26,15.47,4.99,3.09,10.9,4.63,17.73,4.63,5.52,0,10.7-.79,15.57-2.37,4.86-1.58,8.8-3.22,11.82-4.93,1.97,1.18,3.58,2.83,4.83,4.93,1.25,2.1,1.87,4.34,1.87,6.7,0,3.94-1.55,7.23-4.63,9.85-3.09,2.63-7.36,4.6-12.81,5.91-5.45,1.31-11.66,1.97-18.62,1.97-10.12,0-19.21-1.91-27.29-5.71-8.08-3.81-14.42-9.52-19.01-17.14-4.6-7.62-6.9-17.14-6.9-28.57,0-8.4,1.35-15.69,4.04-21.87,2.69-6.17,6.3-11.26,10.84-15.27,4.53-4.01,9.66-6.99,15.37-8.96,5.71-1.97,11.66-2.96,17.83-2.96,9.06,0,16.98,1.81,23.74,5.42,6.76,3.61,12.05,8.51,15.86,14.68,3.81,6.18,5.71,13.33,5.71,21.48,0,4.07-1.12,7.16-3.35,9.26-2.24,2.1-5.32,3.42-9.26,3.94l-62.66,9.26Z"/>
    <path class="cls-1" d="M516.19,895.87v18.52h-29.36v-17.54c0-4.86-1.41-8.44-4.24-10.74-2.83-2.3-6.54-3.45-11.13-3.45-3.29,0-6.31.43-9.06,1.28-2.76.86-5.26,1.87-7.49,3.05v27.39h-29.16v-30.74c0-3.28.69-6.01,2.07-8.18,1.38-2.17,3.38-4.1,6.01-5.81,4.2-2.89,9.59-5.29,16.16-7.19,6.57-1.9,13.79-2.86,21.67-2.86,14.18,0,25.15,3.12,32.9,9.36,7.75,6.24,11.62,15.21,11.62,26.9ZM425.75,905.33h29.16v51.62c-1.31.39-3.15.75-5.52,1.08-2.37.33-4.93.49-7.68.49-5.52,0-9.56-.99-12.12-2.96-2.56-1.97-3.84-5.52-3.84-10.64v-39.6ZM486.83,905.33h29.36v51.62c-1.31.39-3.15.75-5.52,1.08-2.37.33-4.93.49-7.68.49-5.52,0-9.59-.99-12.22-2.96-2.63-1.97-3.94-5.52-3.94-10.64v-39.6Z"/>
    <path class="cls-1" d="M576.68,859.62c13.66,0,24.56,2.86,32.71,8.57,8.14,5.71,12.22,14.55,12.22,26.5v44.73c0,3.29-.86,5.94-2.56,7.98-1.71,2.04-3.87,3.78-6.5,5.22-3.94,2.37-8.84,4.24-14.68,5.62-5.85,1.38-12.51,2.07-20,2.07-13.4,0-24.07-2.63-32.02-7.88-7.95-5.25-11.92-13.07-11.92-23.45,0-8.93,2.76-15.79,8.28-20.59,5.52-4.79,13.72-7.72,24.63-8.77l26.21-2.76v-2.36c0-4.46-1.74-7.68-5.22-9.66-3.48-1.97-8.44-2.96-14.88-2.96-4.99,0-9.88.59-14.68,1.77-4.8,1.18-9.1,2.56-12.91,4.14-1.57-1.05-2.92-2.66-4.04-4.83-1.12-2.17-1.67-4.43-1.67-6.8,0-5.52,3.02-9.52,9.06-12.02,3.81-1.58,8.24-2.73,13.3-3.45,5.06-.72,9.95-1.08,14.68-1.08ZM577.86,938.43c3.02,0,6.01-.3,8.96-.89,2.95-.59,5.09-1.28,6.4-2.07v-18.91l-16.55,1.58c-4.47.26-8.02,1.18-10.64,2.76-2.63,1.58-3.94,3.94-3.94,7.09s1.25,5.68,3.74,7.58c2.49,1.91,6.5,2.86,12.02,2.86Z"/>
    <path class="cls-2" d="M725.64,927.4c-1.45,1.18-3.38,2.17-5.81,2.96-2.43.79-5.22,1.18-8.38,1.18-4.07,0-7.49-.52-10.24-1.58-2.76-1.05-4.53-2.82-5.32-5.32-4.47-12.48-8.24-22.86-11.33-31.13-3.09-8.28-5.49-15.43-7.19-21.48h-.98c-.39,8.28-.73,15.83-.99,22.66-.27,6.83-.46,13.5-.59,20-.13,6.5-.33,13.1-.59,19.8-.27,6.7-.66,14.06-1.18,22.07-1.45.39-3.38.85-5.81,1.38-2.43.52-4.83.79-7.19.79-4.99,0-8.9-.86-11.72-2.56-2.83-1.71-4.24-4.66-4.24-8.87,0-2.89.16-7.19.49-12.91.33-5.71.72-12.28,1.18-19.7.46-7.42.92-15.27,1.38-23.55.46-8.28.99-16.45,1.58-24.53.59-8.08,1.15-15.53,1.67-22.36,1.05-1.58,3.15-3.18,6.3-4.83,3.15-1.64,7.49-2.46,13.01-2.46,5.91,0,10.67.95,14.28,2.86,3.61,1.91,6.21,5.02,7.78,9.36,1.97,4.73,4.07,10.22,6.3,16.45,2.23,6.24,4.43,12.55,6.6,18.91,2.17,6.37,4.17,12.12,6.01,17.24h.99c3.68-11.56,7.45-22.86,11.33-33.89,3.87-11.03,7.19-20.23,9.95-27.58,1.84-1.05,4.17-1.87,7-2.46,2.82-.59,5.81-.89,8.96-.89,5.65,0,10.21.82,13.69,2.46,3.48,1.64,5.55,4.11,6.21,7.39.52,2.5,1.08,6.44,1.67,11.82.59,5.39,1.21,11.59,1.87,18.62.66,7.03,1.31,14.38,1.97,22.07.66,7.68,1.28,15.17,1.87,22.46.59,7.29,1.09,13.83,1.48,19.61.39,5.78.65,10.38.79,13.79-1.97,1.18-4.04,2.07-6.21,2.66-2.17.59-4.9.89-8.18.89-4.21,0-7.78-.79-10.74-2.37-2.96-1.58-4.57-4.6-4.83-9.06-.66-10.25-1.18-20-1.58-29.26-.39-9.26-.69-17.73-.89-25.42-.2-7.68-.43-14.29-.69-19.8h-.99c-1.71,5.65-4.11,12.78-7.19,21.38-3.09,8.6-6.93,19.67-11.53,33.2Z"/>
    <path class="cls-2" d="M813.12,923.65l-1.18-19.7,48.86-7.68c-.27-3.68-1.84-7.09-4.73-10.25-2.89-3.15-7.16-4.73-12.81-4.73s-10.84,2.01-14.78,6.01c-3.94,4.01-6.04,9.69-6.3,17.04l.99,13.6c1.18,7.22,4.27,12.38,9.26,15.47,4.99,3.09,10.9,4.63,17.73,4.63,5.52,0,10.7-.79,15.57-2.37,4.86-1.58,8.8-3.22,11.82-4.93,1.97,1.18,3.58,2.83,4.83,4.93,1.25,2.1,1.87,4.34,1.87,6.7,0,3.94-1.55,7.23-4.63,9.85-3.09,2.63-7.36,4.6-12.81,5.91-5.45,1.31-11.66,1.97-18.62,1.97-10.12,0-19.21-1.91-27.29-5.71-8.08-3.81-14.42-9.52-19.01-17.14-4.6-7.62-6.9-17.14-6.9-28.57,0-8.4,1.35-15.69,4.04-21.87,2.69-6.17,6.3-11.26,10.84-15.27,4.53-4.01,9.66-6.99,15.37-8.96,5.71-1.97,11.66-2.96,17.83-2.96,9.06,0,16.98,1.81,23.74,5.42,6.76,3.61,12.05,8.51,15.86,14.68,3.81,6.18,5.71,13.33,5.71,21.48,0,4.07-1.12,7.16-3.35,9.26-2.24,2.1-5.32,3.42-9.26,3.94l-62.66,9.26Z"/>
    <path class="cls-2" d="M996.75,895.87v18.52h-29.36v-17.54c0-4.86-1.41-8.44-4.24-10.74-2.83-2.3-6.54-3.45-11.13-3.45-3.29,0-6.31.43-9.06,1.28-2.76.86-5.26,1.87-7.49,3.05v27.39h-29.16v-30.74c0-3.28.69-6.01,2.07-8.18,1.38-2.17,3.38-4.1,6.01-5.81,4.2-2.89,9.59-5.29,16.16-7.19,6.57-1.9,13.79-2.86,21.67-2.86,14.18,0,25.15,3.12,32.9,9.36,7.75,6.24,11.62,15.21,11.62,26.9ZM906.31,905.33h29.16v51.62c-1.31.39-3.15.75-5.52,1.08-2.37.33-4.93.49-7.68.49-5.52,0-9.56-.99-12.12-2.96-2.56-1.97-3.84-5.52-3.84-10.64v-39.6ZM967.39,905.33h29.36v51.62c-1.31.39-3.15.75-5.52,1.08-2.37.33-4.93.49-7.68.49-5.52,0-9.59-.99-12.22-2.96-2.63-1.97-3.94-5.52-3.94-10.64v-39.6Z"/>
    <path class="cls-2" d="M1048.77,910.06h-28.96v-70.74c1.31-.39,3.15-.82,5.52-1.28,2.37-.46,4.86-.69,7.49-.69,5.65,0,9.72.99,12.22,2.96,2.49,1.97,3.74,5.58,3.74,10.84v58.91ZM1019.81,905.13h28.96v21.08c0,3.68,1.18,6.37,3.55,8.08,2.37,1.71,5.72,2.56,10.05,2.56,1.97,0,4.1-.23,6.4-.69,2.29-.46,4.23-1.02,5.81-1.67,1.05,1.18,2,2.63,2.86,4.33.85,1.71,1.28,3.68,1.28,5.91,0,4.47-1.84,8.15-5.52,11.03-3.68,2.89-9.85,4.34-18.52,4.34-11.03,0-19.6-2.5-25.71-7.49-6.11-4.99-9.16-13.13-9.16-24.43v-23.05ZM1038.33,887.2v-22.46h37.83c.65,1.05,1.31,2.56,1.97,4.53.65,1.97.98,4.14.98,6.5,0,3.94-.89,6.83-2.66,8.67-1.77,1.84-4.17,2.76-7.19,2.76h-30.93Z"/>
    <path class="cls-2" d="M1108.86,923.65l-1.18-19.7,48.86-7.68c-.27-3.68-1.84-7.09-4.73-10.25-2.89-3.15-7.16-4.73-12.81-4.73s-10.84,2.01-14.78,6.01c-3.94,4.01-6.04,9.69-6.3,17.04l.99,13.6c1.18,7.22,4.27,12.38,9.26,15.47,4.99,3.09,10.9,4.63,17.73,4.63,5.52,0,10.7-.79,15.57-2.37,4.86-1.58,8.8-3.22,11.82-4.93,1.97,1.18,3.58,2.83,4.83,4.93,1.25,2.1,1.87,4.34,1.87,6.7,0,3.94-1.55,7.23-4.63,9.85-3.09,2.63-7.36,4.6-12.81,5.91-5.45,1.31-11.66,1.97-18.62,1.97-10.12,0-19.21-1.91-27.29-5.71-8.08-3.81-14.42-9.52-19.01-17.14-4.6-7.62-6.9-17.14-6.9-28.57,0-8.4,1.35-15.69,4.04-21.87,2.69-6.17,6.3-11.26,10.84-15.27,4.53-4.01,9.66-6.99,15.37-8.96,5.71-1.97,11.66-2.96,17.83-2.96,9.06,0,16.98,1.81,23.74,5.42,6.76,3.61,12.05,8.51,15.86,14.68,3.81,6.18,5.71,13.33,5.71,21.48,0,4.07-1.12,7.16-3.35,9.26-2.24,2.1-5.32,3.42-9.26,3.94l-62.66,9.26Z"/>
  </g>
</svg>